<svg id="Component_254_1" data-name="Component 254 – 1" xmlns="http://www.w3.org/2000/svg" width="34" height="34" viewBox="0 0 34 34">
  <circle id="Ellipse_63" data-name="Ellipse 63" cx="17" cy="17" r="17" fill="#fff"/>
  <path id="Path_82503" data-name="Path 82503" d="M1206.277,263.495a9.276,9.276,0,1,1-9.282,9.252A9.3,9.3,0,0,1,1206.277,263.495Zm8.153,8.725c0-.044,0-.068,0-.091a7.879,7.879,0,0,0-.887-3.105.244.244,0,0,0-.185-.088c-.543-.007-1.086,0-1.629,0h-.937l.416,3.289Zm-12.68-3.287c.022.006.01,0,0,0-.869,0-1.737,0-2.606,0a.243.243,0,0,0-.162.124,7.746,7.746,0,0,0-.779,2.32c-.048.275-.07.554-.1.839h3.237Zm3.965,3.284v-3.286c-.9,0-1.8,0-2.688.006-.044,0-.116.076-.126.126-.112.573-.231,1.146-.313,1.723-.066.469-.084.945-.124,1.431Zm1.11-3.286v3.283h3.24a15.7,15.7,0,0,0-.421-3.179c-.027-.111-.093-.1-.173-.1h-2.647Zm3.976,7.639a.112.112,0,0,0,.039.005c.856,0,1.713,0,2.569-.005a.259.259,0,0,0,.177-.131,7.49,7.49,0,0,0,.686-1.935c.078-.386.124-.778.186-1.177h-3.251Zm-9.465-3.241h-3.222c0,.044,0,.074,0,.1a7.857,7.857,0,0,0,.861,3.038.259.259,0,0,0,.2.1c.609.008,1.218,0,1.827,0h.744Zm1.141-.007a15.145,15.145,0,0,0,.441,3.241h2.8v-3.241Zm4.352,0v3.244h2.8a15.146,15.146,0,0,0,.436-3.244Zm-1.113,7.534v-3.18h-2.444a.181.181,0,0,0,0,.047c.047.124.09.249.142.371a6.241,6.241,0,0,0,1.425,2.22A2.327,2.327,0,0,0,1205.715,280.856Zm3.586-3.179h-2.473v3.207A5.364,5.364,0,0,0,1209.3,277.676Zm-3.58-12.98a4.837,4.837,0,0,0-2.426,3.135h2.426Zm1.1,3.134h2.485c-.214-.451-.4-.883-.62-1.3a4.341,4.341,0,0,0-1.225-1.5c-.19-.14-.407-.244-.64-.382Zm6.011,9.833c-.761,0-1.478.005-2.194,0a.229.229,0,0,0-.263.189,9,9,0,0,1-1.277,2.539.781.781,0,0,0-.042.085A8.307,8.307,0,0,0,1212.834,277.663Zm-13.106.007c.756,1.129,2.917,2.718,3.749,2.76a9.507,9.507,0,0,1-1.379-2.76Zm9.349-12.592c0,.033,0,.046.007.053a9.279,9.279,0,0,1,1.31,2.606c.034.1.092.107.176.107.573,0,1.146,0,1.72,0h.518A8.277,8.277,0,0,0,1209.077,265.079Zm-9.324,2.744a.372.372,0,0,0,.07.019c.724,0,1.448,0,2.172,0,.117,0,.134-.066.167-.146.2-.489.388-.987.621-1.462.194-.4.445-.762.681-1.159A8.253,8.253,0,0,0,1199.753,267.823Z" transform="translate(-1189.272 -255.771)" fill="#000"/>
</svg>
